<svg xmlns="http://www.w3.org/2000/svg" viewBox="0 0 1520 290" width="1520" height="290" data-pivot="0.5,1">
  <!-- living_gate.prop.stiff_ridge (cell §1.3 e1, §7.5): the Stiff Ridge, membrane frozen rigid (gel phase) into a
       wall 1.4 H high. The pivot is the ridge's LEFT foot on the walk line (the blocker sits at world x 4560, where the
       ground is still y 983); the ridge fills the right half (SVG x 760..1520 = world x 4560..5320, the heightfield's
       y-745 plateau at SVG y 52). Frosted lipid heads over dead-still frozen tails, a dim oil seam, ice facets and
       frost sparkles on top, a shadowed cavity at its foot. The e1 payoff melts it into the low ramp. -->
  <defs>
    <linearGradient id="gel" x1="0" y1="0" x2="0.25" y2="1">
      <stop offset="0" stop-color="{{gel.frost.lit}}"/>
      <stop offset="0.5" stop-color="{{gel.frost}}"/>
      <stop offset="1" stop-color="{{gel.frost.shade}}"/>
    </linearGradient>
    <radialGradient id="head" cx="0.35" cy="0.32" r="0.75">
      <stop offset="0" stop-color="{{gel.frost.lit}}"/>
      <stop offset="0.7" stop-color="{{lipid.head|mix:gel.frost:0.6}}"/>
      <stop offset="1" stop-color="{{gel.frost.shade}}"/>
    </radialGradient>
    <radialGradient id="cave" cx="0.5" cy="1" r="0.8">
      <stop offset="0" stop-color="{{oil.seam.dark|alpha:0.55}}"/>
      <stop offset="1" stop-color="{{oil.seam.dark|alpha:0}}"/>
    </radialGradient>
    <filter id="blur6" x="-10%" y="-40%" width="120%" height="180%"><feGaussianBlur stdDeviation="6"/></filter>
  </defs>
  <g id="shade">
    <ellipse cx="1180" cy="286" rx="410" ry="12" fill="{{shadow|alpha:0.3}}" filter="url(#blur6)"/>
  </g>
  <g id="lit">
    <path d="M 760 290 L 768 150 L 776 124.8 L 784 108.6 L 792 96.6 L 800 87.2 L 808 79.4 L 816 72.9 L 824 67.3 L 832 62.5 L 840 58.3 L 848 54.6 L 856 51.4 L 864 48.5 L 872 46 L 880 43.7 L 888 41.7 L 896 39.9 L 904 38.3 L 912 36.9 L 920 35.7 L 928 34.6 L 936 33.6 L 944 32.8 L 952 32 L 960 31.4 L 968 30.8 L 976 30.3 L 984 29.9 L 992 29.5 L 1000 29.2 L 1008 29 L 1016 28.7 L 1024 28.6 L 1032 28.4 L 1040 28.3 L 1048 28.2 L 1056 28.2 L 1064 28.1 L 1072 28.1 L 1080 28 L 1088 28 L 1096 28 L 1104 28 L 1112 28 L 1120 28 L 1128 28 L 1136 28 L 1144 28 L 1152 28 L 1160 28 L 1168 28 L 1176 28 L 1184 28 L 1192 28 L 1200 28 L 1208 28.1 L 1216 28.1 L 1224 28.2 L 1232 28.2 L 1240 28.3 L 1248 28.4 L 1256 28.6 L 1264 28.7 L 1272 29 L 1280 29.2 L 1288 29.5 L 1296 29.9 L 1304 30.3 L 1312 30.8 L 1320 31.4 L 1328 32 L 1336 32.8 L 1344 33.6 L 1352 34.6 L 1360 35.7 L 1368 36.9 L 1376 38.3 L 1384 39.9 L 1392 41.7 L 1400 43.7 L 1408 46 L 1416 48.5 L 1424 51.4 L 1432 54.6 L 1440 58.3 L 1448 62.5 L 1456 67.3 L 1464 72.9 L 1472 79.4 L 1480 87.2 L 1488 96.6 L 1496 108.6 L 1504 124.8 L 1512 150 L 1520 290 Z" fill="url(#gel)"/>
    <path d="M 817.6 108.4 L 858.4 146.7 M 827.6 108.4 L 868.4 146.7 M 876.6 163.9 L 908.7 194 M 886.6 163.9 L 918.7 194 M 842.2 89.5 L 869.6 138.4 M 852.2 89.5 L 879.6 138.4 M 881.8 160.2 L 903.3 198.6 M 891.8 160.2 L 913.3 198.6 M 868.9 77.9 L 886.8 130.9 M 878.9 77.9 L 896.8 130.9 M 894.8 154.6 L 908.9 196.3 M 904.8 154.6 L 918.9 196.3 M 897.4 70.3 L 908.9 125.1 M 907.4 70.3 L 918.9 125.1 M 914 149.5 L 923 192.6 M 924 149.5 L 933 192.6 M 927 65.3 L 934.2 120.9 M 937 65.3 L 944.2 120.9 M 937.4 145.7 L 943 189.3 M 947.4 145.7 L 953 189.3 M 957.4 62.3 L 961.6 118.1 M 967.4 62.3 L 971.6 118.1 M 963.5 143 L 966.8 186.9 M 973.5 143 L 976.8 186.9 M 988.3 60.5 L 990.6 116.4 M 998.3 60.5 L 1000.6 116.4 M 991.6 141.4 L 993.5 185.4 M 1001.6 141.4 L 1003.5 185.4 M 1019.6 59.6 L 1020.7 115.6 M 1029.6 59.6 L 1030.7 115.6 M 1021.2 140.5 L 1022.1 184.5 M 1031.2 140.5 L 1032.1 184.5 M 1051.2 59.2 L 1051.6 115.2 M 1061.2 59.2 L 1061.6 115.2 M 1051.8 140.2 L 1052.2 184.2 M 1061.8 140.2 L 1062.2 184.2 M 1083.1 59 L 1083.2 115 M 1093.1 59 L 1093.2 115 M 1083.2 140 L 1083.3 184 M 1093.2 140 L 1093.3 184 M 1115 59 L 1115 115 M 1125 59 L 1125 115 M 1115 140 L 1115 184 M 1125 140 L 1125 184 M 1147 59 L 1147 115 M 1157 59 L 1157 115 M 1147 140 L 1147 184 M 1157 140 L 1157 184 M 1179 59 L 1178.9 115 M 1189 59 L 1188.9 115 M 1178.9 140 L 1178.8 184 M 1188.9 140 L 1188.8 184 M 1210.8 59.1 L 1210.5 115.1 M 1220.8 59.1 L 1220.5 115.1 M 1210.4 140.1 L 1210.1 184.1 M 1220.4 140.1 L 1220.1 184.1 M 1242.5 59.4 L 1241.6 115.4 M 1252.5 59.4 L 1251.6 115.4 M 1241.2 140.4 L 1240.5 184.4 M 1251.2 140.4 L 1250.5 184.4 M 1273.9 60.2 L 1272 116.2 M 1283.9 60.2 L 1282 116.2 M 1271.1 141.1 L 1269.5 185.1 M 1281.1 141.1 L 1279.5 185.1 M 1305 61.7 L 1301.3 117.6 M 1315 61.7 L 1311.3 117.6 M 1299.6 142.6 L 1296.7 186.5 M 1309.6 142.6 L 1306.7 186.5 M 1335.5 64.4 L 1329.2 120.1 M 1345.5 64.4 L 1339.2 120.1 M 1326.3 144.9 L 1321.4 188.6 M 1336.3 144.9 L 1331.4 188.6 M 1365.3 68.8 L 1355.1 123.9 M 1375.3 68.8 L 1365.1 123.9 M 1350.5 148.4 L 1342.4 191.7 M 1360.5 148.4 L 1352.4 191.7 M 1394.1 75.7 L 1378.1 129.3 M 1404.1 75.7 L 1388.1 129.3 M 1370.9 153.3 L 1358.3 195.4 M 1380.9 153.3 L 1368.3 195.4 M 1421.3 86.1 L 1396.7 136.4 M 1431.3 86.1 L 1406.7 136.4 M 1385.7 158.9 L 1366.3 198.4 M 1395.7 158.9 L 1376.3 198.4 M 1446.4 102.6 L 1409.3 144.5 M 1456.4 102.6 L 1419.3 144.5 M 1392.7 163.3 L 1363.6 196.2 M 1402.7 163.3 L 1373.6 196.2" stroke="{{lipid.tail|mix:gel.frost:0.5}}" stroke-width="4.5" stroke-linecap="round"/>
    <path d="M 872.9 155.6 L 880.9 149.7 L 896 143.3 L 916.5 137.8 L 940.8 133.8 L 967.6 131.1 L 996.1 129.4 L 1026 128.6 L 1056.7 128.2 L 1088.2 128 L 1120 128 L 1152 128 L 1183.9 128 L 1215.4 128.1 L 1246.4 128.4 L 1276.5 129.2 L 1305.4 130.6 L 1332.7 133 L 1357.7 136.6 L 1379.3 141.8 L 1396 148.1 L 1405.7 154.3" fill="none" stroke="{{oil.seam|mix:gel.frost:0.45}}" stroke-width="9" stroke-linecap="round"/>
    <circle cx="812.4" cy="98.8" r="15.5" fill="url(#head)" stroke="{{gel.frost.shade}}" stroke-width="1.5"/><circle cx="840.3" cy="77.3" r="15.5" fill="url(#head)" stroke="{{gel.frost.shade}}" stroke-width="1.5"/><circle cx="869.4" cy="64.6" r="15.5" fill="url(#head)" stroke="{{gel.frost.shade}}" stroke-width="1.5"/><circle cx="899.5" cy="56.6" r="15.5" fill="url(#head)" stroke="{{gel.frost.shade}}" stroke-width="1.5"/><circle cx="930.2" cy="51.4" r="15.5" fill="url(#head)" stroke="{{gel.frost.shade}}" stroke-width="1.5"/><circle cx="961.3" cy="48.3" r="15.5" fill="url(#head)" stroke="{{gel.frost.shade}}" stroke-width="1.5"/><circle cx="992.7" cy="46.5" r="15.5" fill="url(#head)" stroke="{{gel.frost.shade}}" stroke-width="1.5"/><circle cx="1024.3" cy="45.6" r="15.5" fill="url(#head)" stroke="{{gel.frost.shade}}" stroke-width="1.5"/><circle cx="1056.1" cy="45.2" r="15.5" fill="url(#head)" stroke="{{gel.frost.shade}}" stroke-width="1.5"/><circle cx="1088" cy="45" r="15.5" fill="url(#head)" stroke="{{gel.frost.shade}}" stroke-width="1.5"/><circle cx="1120" cy="45" r="15.5" fill="url(#head)" stroke="{{gel.frost.shade}}" stroke-width="1.5"/><circle cx="1152" cy="45" r="15.5" fill="url(#head)" stroke="{{gel.frost.shade}}" stroke-width="1.5"/><circle cx="1184" cy="45" r="15.5" fill="url(#head)" stroke="{{gel.frost.shade}}" stroke-width="1.5"/><circle cx="1215.9" cy="45.1" r="15.5" fill="url(#head)" stroke="{{gel.frost.shade}}" stroke-width="1.5"/><circle cx="1247.7" cy="45.4" r="15.5" fill="url(#head)" stroke="{{gel.frost.shade}}" stroke-width="1.5"/><circle cx="1279.4" cy="46.2" r="15.5" fill="url(#head)" stroke="{{gel.frost.shade}}" stroke-width="1.5"/><circle cx="1310.9" cy="47.8" r="15.5" fill="url(#head)" stroke="{{gel.frost.shade}}" stroke-width="1.5"/><circle cx="1342.1" cy="50.5" r="15.5" fill="url(#head)" stroke="{{gel.frost.shade}}" stroke-width="1.5"/><circle cx="1372.9" cy="55.1" r="15.5" fill="url(#head)" stroke="{{gel.frost.shade}}" stroke-width="1.5"/><circle cx="1403.1" cy="62.3" r="15.5" fill="url(#head)" stroke="{{gel.frost.shade}}" stroke-width="1.5"/><circle cx="1432.5" cy="73.6" r="15.5" fill="url(#head)" stroke="{{gel.frost.shade}}" stroke-width="1.5"/><circle cx="1460.7" cy="92.1" r="15.5" fill="url(#head)" stroke="{{gel.frost.shade}}" stroke-width="1.5"/>
    <circle cx="925.4" cy="204.9" r="14" fill="url(#head)" opacity="0.8"/><circle cx="916.1" cy="212.5" r="14" fill="url(#head)" opacity="0.8"/><circle cx="919" cy="211.5" r="14" fill="url(#head)" opacity="0.8"/><circle cx="931.3" cy="208.3" r="14" fill="url(#head)" opacity="0.8"/><circle cx="950" cy="205.2" r="14" fill="url(#head)" opacity="0.8"/><circle cx="973.1" cy="202.9" r="14" fill="url(#head)" opacity="0.8"/><circle cx="999.1" cy="201.4" r="14" fill="url(#head)" opacity="0.8"/><circle cx="1027.4" cy="200.5" r="14" fill="url(#head)" opacity="0.8"/><circle cx="1057.3" cy="200.2" r="14" fill="url(#head)" opacity="0.8"/><circle cx="1088.3" cy="200" r="14" fill="url(#head)" opacity="0.8"/><circle cx="1120" cy="200" r="14" fill="url(#head)" opacity="0.8"/><circle cx="1152" cy="200" r="14" fill="url(#head)" opacity="0.8"/><circle cx="1183.8" cy="200" r="14" fill="url(#head)" opacity="0.8"/><circle cx="1215" cy="200.1" r="14" fill="url(#head)" opacity="0.8"/><circle cx="1245.3" cy="200.4" r="14" fill="url(#head)" opacity="0.8"/><circle cx="1274" cy="201.1" r="14" fill="url(#head)" opacity="0.8"/><circle cx="1300.7" cy="202.4" r="14" fill="url(#head)" opacity="0.8"/><circle cx="1324.5" cy="204.5" r="14" fill="url(#head)" opacity="0.8"/><circle cx="1344.5" cy="207.4" r="14" fill="url(#head)" opacity="0.8"/><circle cx="1358.7" cy="210.7" r="14" fill="url(#head)" opacity="0.8"/><circle cx="1364.2" cy="212.7" r="14" fill="url(#head)" opacity="0.8"/><circle cx="1358" cy="208.2" r="14" fill="url(#head)" opacity="0.8"/>
    <path d="M 766 290 C 776 200 790 110 830 58" fill="none" stroke="{{haze|alpha:0.75}}" stroke-width="5" stroke-linecap="round"/>
    <path d="M 1516 290 C 1508 190 1494 110 1460 64" fill="none" stroke="{{gel.frost.shade}}" stroke-width="6" stroke-linecap="round"/>
  </g>
  <g id="trim">
    <ellipse cx="1140" cy="290" rx="170" ry="40" fill="url(#cave)"/>
    <path d="M 1020 290 C 1050 256 1230 256 1260 290 Z" fill="{{oil.seam.dark|alpha:0.35}}"/>
    <path d="M 809.8 76.6 L 798.6 18.6 L 834.2 76.6 Z" fill="{{crystal.base|mix:gel.frost:0.35}}"/><path d="M 809.8 76.6 L 798.6 18.6 L 820.8 76.6 Z" fill="{{crystal.hi}}"/><path d="M 798.6 18.6 L 834.2 76.6" stroke="{{crystal.shade|alpha:0.5}}" stroke-width="1.5"/><path d="M 860.7 51.7 L 863.8 -40.3 L 899.3 51.7 Z" fill="{{crystal.base|mix:gel.frost:0.35}}"/><path d="M 860.7 51.7 L 863.8 -40.3 L 878.1 51.7 Z" fill="{{crystal.hi}}"/><path d="M 863.8 -40.3 L 899.3 51.7" stroke="{{crystal.shade|alpha:0.5}}" stroke-width="1.5"/><path d="M 939.4 40 L 958.3 -20 L 964.6 40 Z" fill="{{crystal.base|mix:gel.frost:0.35}}"/><path d="M 939.4 40 L 958.3 -20 L 950.7 40 Z" fill="{{crystal.hi}}"/><path d="M 958.3 -20 L 964.6 40" stroke="{{crystal.shade|alpha:0.5}}" stroke-width="1.5"/><path d="M 1006.9 36.5 L 1018.4 -73.5 L 1053.1 36.5 Z" fill="{{crystal.base|mix:gel.frost:0.35}}"/><path d="M 1006.9 36.5 L 1018.4 -73.5 L 1027.7 36.5 Z" fill="{{crystal.hi}}"/><path d="M 1018.4 -73.5 L 1053.1 36.5" stroke="{{crystal.shade|alpha:0.5}}" stroke-width="1.5"/><path d="M 1087.3 36 L 1114.3 -34 L 1116.7 36 Z" fill="{{crystal.base|mix:gel.frost:0.35}}"/><path d="M 1087.3 36 L 1114.3 -34 L 1100.5 36 Z" fill="{{crystal.hi}}"/><path d="M 1114.3 -34 L 1116.7 36" stroke="{{crystal.shade|alpha:0.5}}" stroke-width="1.5"/><path d="M 1154 36 L 1171.3 -88 L 1206 36 Z" fill="{{crystal.base|mix:gel.frost:0.35}}"/><path d="M 1154 36 L 1171.3 -88 L 1177.4 36 Z" fill="{{crystal.hi}}"/><path d="M 1171.3 -88 L 1206 36" stroke="{{crystal.shade|alpha:0.5}}" stroke-width="1.5"/><path d="M 1244.4 36.7 L 1273.8 -47.3 L 1279.6 36.7 Z" fill="{{crystal.base|mix:gel.frost:0.35}}"/><path d="M 1244.4 36.7 L 1273.8 -47.3 L 1260.2 36.7 Z" fill="{{crystal.hi}}"/><path d="M 1273.8 -47.3 L 1279.6 36.7" stroke="{{crystal.shade|alpha:0.5}}" stroke-width="1.5"/><path d="M 1316.2 41 L 1315.9 -63 L 1359.8 41 Z" fill="{{crystal.base|mix:gel.frost:0.35}}"/><path d="M 1316.2 41 L 1315.9 -63 L 1335.8 41 Z" fill="{{crystal.hi}}"/><path d="M 1315.9 -63 L 1359.8 41" stroke="{{crystal.shade|alpha:0.5}}" stroke-width="1.5"/><path d="M 1394.1 54 L 1424.5 -12 L 1421.9 54 Z" fill="{{crystal.base|mix:gel.frost:0.35}}"/><path d="M 1394.1 54 L 1424.5 -12 L 1406.6 54 Z" fill="{{crystal.hi}}"/><path d="M 1424.5 -12 L 1421.9 54" stroke="{{crystal.shade|alpha:0.5}}" stroke-width="1.5"/><path d="M 1455.5 82.4 L 1488.3 32.4 L 1476.5 82.4 Z" fill="{{crystal.base|mix:gel.frost:0.35}}"/><path d="M 1455.5 82.4 L 1488.3 32.4 L 1465 82.4 Z" fill="{{crystal.hi}}"/><path d="M 1488.3 32.4 L 1476.5 82.4" stroke="{{crystal.shade|alpha:0.5}}" stroke-width="1.5"/>
  </g>
  <g id="glow">
    <path d="M 870 113 L 871.5 118.5 L 877 120 L 871.5 121.5 L 870 127 L 868.5 121.5 L 863 120 L 868.5 118.5 Z" fill="{{haze|alpha:0.9}}"/><path d="M 1004 61 L 1006 68 L 1013 70 L 1006 72 L 1004 79 L 1002 72 L 995 70 L 1002 68 Z" fill="{{haze|alpha:0.9}}"/><path d="M 1120 144 L 1121.3 148.7 L 1126 150 L 1121.3 151.3 L 1120 156 L 1118.7 151.3 L 1114 150 L 1118.7 148.7 Z" fill="{{haze|alpha:0.9}}"/><path d="M 1210 56 L 1211.8 62.2 L 1218 64 L 1211.8 65.8 L 1210 72 L 1208.2 65.8 L 1202 64 L 1208.2 62.2 Z" fill="{{haze|alpha:0.9}}"/><path d="M 1350 103 L 1351.5 108.5 L 1357 110 L 1351.5 111.5 L 1350 117 L 1348.5 111.5 L 1343 110 L 1348.5 108.5 Z" fill="{{haze|alpha:0.9}}"/><path d="M 1440 164 L 1441.3 168.7 L 1446 170 L 1441.3 171.3 L 1440 176 L 1438.7 171.3 L 1434 170 L 1438.7 168.7 Z" fill="{{haze|alpha:0.9}}"/><path d="M 960 195 L 961.1 198.9 L 965 200 L 961.1 201.1 L 960 205 L 958.9 201.1 L 955 200 L 958.9 198.9 Z" fill="{{haze|alpha:0.9}}"/><path d="M 1290 205 L 1291.1 208.9 L 1295 210 L 1291.1 211.1 L 1290 215 L 1288.9 211.1 L 1285 210 L 1288.9 208.9 Z" fill="{{haze|alpha:0.9}}"/>
  </g>
  <circle id="anchor-ridge_top" cx="1140" cy="28" r="0"/>
  <circle id="anchor-ridge_left" cx="760" cy="290" r="0"/>
  <circle id="anchor-ridge_right" cx="1520" cy="290" r="0"/>
</svg>
