<svg xmlns="http://www.w3.org/2000/svg" viewBox="0 0 360 900" width="360" height="900"><defs><linearGradient id="kdc1da5ea_0" x1="0" y1="0" x2="1" y2="0"><stop offset="0%" stop-color="#8FE0EA"/><stop offset="60%" stop-color="#4CB6D0"/><stop offset="100%" stop-color="#53ABC5"/></linearGradient></defs><path d="M0 0h360v900h-360Z" fill="url(#kdc1da5ea_0)"/><path d="M283.6 151v93.8M-76.4 151v93.8M156 402.4v100.2M267.1 92.9v59.1M324.4 474.8v50.5M-35.6 474.8v50.5M15.1 185.8v62.3M247.9 459.4v98.9M195.9 267.9v95.4M251.2 662.5v101.9M148.9 625.1v40.8M313.2 140v77.8M-46.8 140v77.8M9.6 829.7v70.3M9.6 0v25M258.4 291.2v66.4M247.8 178v105M264.8 123.8v61.8M44.4 5.8v68.4M252.8 280.6v31.3M290.6 839.2v50.6M11.5 826.6v46.6M176.2 318.6v105.6M104.4 24.9v57.1M99.3 442.9v104.8M159 719v80.3M185.8 283.3v42.3M306.2 243v92.4M-53.8 243v92.4M102.8 459.8v102.3M146.7 265.1v39.9M152.6 653.1v108.9M224.1 656.2v44.4M50 527.1v54.7M112.1 766.6v101.6M316.4 424v38.5M145.3 496.8v41.5M280.1 896.9v3.1M280.1 0v88.1M-79.9 896.9v3.1M-79.9 0v88.1M320.7 899.6v0.4M320.7 0v50M-39.3 899.6v0.4M-39.3 0v50M241.1 266.4v34.5M301 349.8v83.2M-59 349.8v83.2M260.4 363.7v108.4M-99.6 363.7v108.4M19.4 229.7v62.8M99.1 351.1v52.3M17.6 287.3v86.8M65.6 421.5v35.8M157.5 483.6v64.7M187.9 849.2v50.8M187.9 0v20.4M347.8 782v99.2M-12.2 782v99.2M297.1 580.3v43.7M257.1 111.4v52.4M329 467.2v35M-31 467.2v35M196.2 625.5v84.1M123.3 740.1v61.1M17.3 892v8M17.3 0v65.4M34.9 550.4v94.1M105.7 284v53.2M153.7 128v51.9M196 340v97.9M78.3 717.1v89.2M317.7 779.9v76.5M-42.3 779.9v76.5M355 211.4v78M-5 211.4v78M333.4 653.5v76.6M-26.6 653.5v76.6M233.5 639.7v61.3M275.2 585.2v105.6M-84.8 585.2v105.6M257.3 577.6v63M312 374v63.6M-48 374v63.6M113.4 844.6v55.4M113.4 0v29.6M311.1 123.3v43M347.6 562.7v75M-12.4 562.7v75M319.1 95.2v63.1M-40.9 95.2v63.1M30.9 737.7v76.6M210.4 510.3v71.4M205 702.4v95.5M324.8 169.7v77.7M-35.2 169.7v77.7M317.3 103.3v104.8M-42.7 103.3v104.8M203.1 347.9v83.4M188.2 217.2v85.4M107.5 794v100.1M328.2 192v32.3M-31.8 192v32.3M1.4 325.9v87.5M244.2 623.7v68.1M183.8 145.4v54.3M136.7 508.2v73.4M77.4 677.7v71.8M126.3 108.7v67.8M353.7 672.7v106.3M-6.3 672.7v106.3M257.3 797.8v83.6M127.6 465.9v76.6M187.9 287.3v34.9M87.8 413v31.1M209.4 661.2v32.5M57.1 803.5v96.5M57.1 0v12.4M132.8 401.3v108.3M132.9 718.4v54.4M91.6 731.3v94M243.2 206.2v32.4M77.7 430.8v107.8M342.9 514.7v88M-17.1 514.7v88M301.1 606.4v76.8M-58.9 606.4v76.8M118.6 709.4v78.6M224.1 503.3v50M277 883v17M277 0v34.7M325.5 600.1v64M-34.5 600.1v64M296.2 884v16M296.2 0v26.4M34.2 223.1v77.2M198.3 317.8v94.1M119.1 490v33.4M243.1 634v39.9M159.7 116.9v83.7M223 685.9v92.6M348.5 158.2v54.5M-11.5 158.2v54.5M152.6 368.4v46.3M18.9 651.7v94M205 816.7v50.8M242.1 802.1v44.3M228.3 17.9v84.5M169.1 129.4v31.6M26.4 697.5v94.4M183.1 272.7v44.1M98.4 871.1v28.9M98.4 0v4.8M116.6 250.4v81.5M185.6 339.1v89.3M352.7 859.4v40.6M352.7 0v63.4M-7.3 859.4v40.6M-7.3 0v63.4M304.3 856.7v43.3M304.3 0v50M-55.7 856.7v43.3M-55.7 0v50M28.9 506.6v52.2M346.2 34.4v80.7M-13.8 34.4v80.7M111.7 775v60.8M2.7 381.4v69.8M134.2 881.5v18.5M134.2 0v55.4M275.3 818.9v81.1M275.3 0v27.3M-84.7 818.9v81.1M-84.7 0v27.3M125.8 739.7v75.7M202.2 223.3v41.1M6.2 689.8v60.7M96.9 610.4v52.3M97.6 52.6v41M66.9 70.2v83.5M300.6 542.9v56.1M249.1 48.9v82.5M286.6 88.7v33.6M238.3 733.4v32.5M10.2 244.6v99.9M14.6 519.3v57.2M285.2 470.8v86.8M-74.8 470.8v86.8M9.6 428v75.9M330.8 36.3v105.4M-29.2 36.3v105.4M152.7 542.4v96M59.2 509.4v87M193.1 304.1v71.3M78.2 413.1v102.2M167.6 342.9v61.4M61.1 217.9v75.4M148.4 561v57M100.8 334.1v103.2M201.1 432.1v96.2M131.1 752.9v36.6M39.6 788.7v67.9M239.8 152.4v75.1M236.2 141.9v89.5M73.9 596.9v87.4M255.7 652.9v59.2M55.1 398.3v91.8M133.3 642.9v80.9M143.8 355v40.5M157.6 489.4v108.5M273.2 467.7v55.7M359.1 761.7v65.7M-0.9 761.7v65.7M21 85.3v70.2M254.3 779.6v56.2M81.4 36.6v60.8M313.5 118.6v42M119.6 161.9v60M163.6 286.6v96.6M78.8 453.3v99.6M132.1 553.7v79.3M91 667.8v97.5M294.3 654.8v85.4M-65.7 654.8v85.4M314.1 127.9v60.7M-45.9 127.9v60.7M253.4 128.5v48.1M312.6 558.2v54.9M-47.4 558.2v54.9M334.8 825.3v74.7M334.8 0v4.4M-25.2 825.3v74.7M-25.2 0v4.4M276.5 566.2v48.6M174.8 815.9v84.1M174.8 0v25.1M0.6 862.3v37.7M0.6 0v50.2M184.8 415.5v52.2" stroke="#FFFFFF" stroke-opacity="0.3" stroke-width="2.5" stroke-linecap="round" fill="none"/></svg>