<svg xmlns="http://www.w3.org/2000/svg" viewBox="0 0 144 48" width="144" height="48"><defs><radialGradient id="kb55dbd1b_0" cx="0.5" cy="0.5" r="0.5"><stop offset="0%" stop-color="#FFF4D6"/><stop offset="50%" stop-color="#D9A441" stop-opacity="0.6"/><stop offset="100%" stop-color="#D9A441" stop-opacity="0"/></radialGradient><filter id="kb55dbd1b_1" x="-50%" y="-50%" width="200%" height="200%"><feGaussianBlur stdDeviation="1.4"/></filter></defs><path d="M13.1 22.8a9 9 0 1 0 17.9 0a9 9 0 1 0 -17.9 0ZM12.8 24.2a9 9 0 1 0 17.9 0a9 9 0 1 0 -17.9 0ZM17.1 23.1a9 9 0 1 0 17.9 0a9 9 0 1 0 -17.9 0ZM13.5 22.3a9 9 0 1 0 17.9 0a9 9 0 1 0 -17.9 0ZM13.2 22.7a9 9 0 1 0 17.9 0a9 9 0 1 0 -17.9 0Z" fill="#D9A441" fill-opacity="0.7" filter="url(#kb55dbd1b_1)"/><path d="M64.6 21.6a11.2 11.2 0 1 0 22.4 0a11.2 11.2 0 1 0 -22.4 0ZM65.2 23.2a11.2 11.2 0 1 0 22.4 0a11.2 11.2 0 1 0 -22.4 0ZM65.3 24.4a11.2 11.2 0 1 0 22.4 0a11.2 11.2 0 1 0 -22.4 0ZM58.2 20.4a11.2 11.2 0 1 0 22.4 0a11.2 11.2 0 1 0 -22.4 0ZM64.8 22a11.2 11.2 0 1 0 22.4 0a11.2 11.2 0 1 0 -22.4 0Z" fill="#D9A441" fill-opacity="0.5" filter="url(#glbl2)"/><path d="M100.5 27a13.4 13.4 0 1 0 26.9 0a13.4 13.4 0 1 0 -26.9 0ZM107.3 30.7a13.4 13.4 0 1 0 26.9 0a13.4 13.4 0 1 0 -26.9 0ZM113.3 23.6a13.4 13.4 0 1 0 26.9 0a13.4 13.4 0 1 0 -26.9 0ZM103.5 30a13.4 13.4 0 1 0 26.9 0a13.4 13.4 0 1 0 -26.9 0ZM110.1 18.3a13.4 13.4 0 1 0 26.9 0a13.4 13.4 0 1 0 -26.9 0Z" fill="#D9A441" fill-opacity="0.3" filter="url(#glbl3)"/></svg>