<svg xmlns="http://www.w3.org/2000/svg" viewBox="0 0 2048 600" width="2048" height="600"><defs><linearGradient id="k90bdaf6c_0" x1="0" y1="0" x2="1" y2="1"><stop offset="0%" stop-color="#FFFFFF" stop-opacity="0.4"/><stop offset="50%" stop-color="#FFFFFF" stop-opacity="0"/><stop offset="100%" stop-color="#6E7F9A" stop-opacity="0.4"/></linearGradient><radialGradient id="k90bdaf6c_1" cx="0.5" cy="0.5" r="0.6" fx="0.3" fy="0.3"><stop offset="0%" stop-color="#EBC57A"/><stop offset="55%" stop-color="#C99A4A"/><stop offset="100%" stop-color="#8E6428"/></radialGradient><linearGradient id="k90bdaf6c_2" x1="0" y1="0" x2="1" y2="1"><stop offset="0%" stop-color="#FFFFFF" stop-opacity="0.4"/><stop offset="50%" stop-color="#FFFFFF" stop-opacity="0"/><stop offset="100%" stop-color="#6E7F9A" stop-opacity="0.4"/></linearGradient><radialGradient id="k90bdaf6c_3" cx="0.5" cy="0.5" r="0.6" fx="0.3" fy="0.3"><stop offset="0%" stop-color="#EBC57A"/><stop offset="55%" stop-color="#C99A4A"/><stop offset="100%" stop-color="#8E6428"/></radialGradient><linearGradient id="k90bdaf6c_4" x1="0" y1="0" x2="1" y2="1"><stop offset="0%" stop-color="#526B88"/><stop offset="50%" stop-color="#27466A"/><stop offset="100%" stop-color="#1B3150"/></linearGradient></defs><g transform="translate(210 90) scale(1)"><path d="M10 210a200 200 0 1 0 400 0a200 200 0 1 0 -400 0ZM34 210a176 176 0 1 0 352 0a176 176 0 1 0 -352 0ZM199.6 10.8L203.5 -1.9L216.5 -1.9L220.4 10.8ZM234.3 12L240.4 0.2L253.2 2.4L254.9 15.6ZM268.3 19.2L276.4 8.7L288.6 13.1L288 26.4ZM300.6 32.2L310.3 23.3L321.6 29.7L318.7 42.7ZM330.1 50.7L341.2 43.5L351.2 51.8L346.1 64.1ZM355.9 73.9L368.2 68.8L376.5 78.8L369.3 89.9ZM377.3 101.3L390.3 98.4L396.7 109.7L387.8 119.4ZM393.6 132L406.9 131.4L411.3 143.6L400.8 151.7ZM404.4 165.1L417.6 166.8L419.8 179.6L408 185.7ZM409.2 199.6L421.9 203.5L421.9 216.5L409.2 220.4ZM408 234.3L419.8 240.4L417.6 253.2L404.4 254.9ZM400.8 268.3L411.3 276.4L406.9 288.6L393.6 288ZM387.8 300.6L396.7 310.3L390.3 321.6L377.3 318.7ZM369.3 330.1L376.5 341.2L368.2 351.2L355.9 346.1ZM346.1 355.9L351.2 368.2L341.2 376.5L330.1 369.3ZM318.7 377.3L321.6 390.3L310.3 396.7L300.6 387.8ZM288 393.6L288.6 406.9L276.4 411.3L268.3 400.8ZM254.9 404.4L253.2 417.6L240.4 419.8L234.3 408ZM220.4 409.2L216.5 421.9L203.5 421.9L199.6 409.2ZM185.7 408L179.6 419.8L166.8 417.6L165.1 404.4ZM151.7 400.8L143.6 411.3L131.4 406.9L132 393.6ZM119.4 387.8L109.7 396.7L98.4 390.3L101.3 377.3ZM89.9 369.3L78.8 376.5L68.8 368.2L73.9 355.9ZM64.1 346.1L51.8 351.2L43.5 341.2L50.7 330.1ZM42.7 318.7L29.7 321.6L23.3 310.3L32.2 300.6ZM26.4 288L13.1 288.6L8.7 276.4L19.2 268.3ZM15.6 254.9L2.4 253.2L0.2 240.4L12 234.3ZM10.8 220.4L-1.9 216.5L-1.9 203.5L10.8 199.6ZM12 185.7L0.2 179.6L2.4 166.8L15.6 165.1ZM19.2 151.7L8.7 143.6L13.1 131.4L26.4 132ZM32.2 119.4L23.3 109.7L29.7 98.4L42.7 101.3ZM50.7 89.9L43.5 78.8L51.8 68.8L64.1 73.9ZM73.9 64.1L68.8 51.8L78.8 43.5L89.9 50.7ZM101.3 42.7L98.4 29.7L109.7 23.3L119.4 32.2ZM132 26.4L131.4 13.1L143.6 8.7L151.7 19.2ZM165.1 15.6L166.8 2.4L179.6 0.2L185.7 12ZM216 177.6L216 33L204 33L204 177.6ZM241.1 199L366.3 126.7L360.3 116.3L235.1 188.6ZM235.1 231.4L360.3 303.7L366.3 293.3L241.1 221ZM204 242.4L204 387L216 387L216 242.4ZM178.9 221L53.7 293.3L59.7 303.7L184.9 231.4ZM184.9 188.6L59.7 116.3L53.7 126.7L178.9 199Z" fill="#C99A4A" fill-rule="evenodd" fill-opacity="0.7"/><path d="M10 210a200 200 0 1 0 400 0a200 200 0 1 0 -400 0ZM34 210a176 176 0 1 0 352 0a176 176 0 1 0 -352 0ZM199.6 10.8L203.5 -1.9L216.5 -1.9L220.4 10.8ZM234.3 12L240.4 0.2L253.2 2.4L254.9 15.6ZM268.3 19.2L276.4 8.7L288.6 13.1L288 26.4ZM300.6 32.2L310.3 23.3L321.6 29.7L318.7 42.7ZM330.1 50.7L341.2 43.5L351.2 51.8L346.1 64.1ZM355.9 73.9L368.2 68.8L376.5 78.8L369.3 89.9ZM377.3 101.3L390.3 98.4L396.7 109.7L387.8 119.4ZM393.6 132L406.9 131.4L411.3 143.6L400.8 151.7ZM404.4 165.1L417.6 166.8L419.8 179.6L408 185.7ZM409.2 199.6L421.9 203.5L421.9 216.5L409.2 220.4ZM408 234.3L419.8 240.4L417.6 253.2L404.4 254.9ZM400.8 268.3L411.3 276.4L406.9 288.6L393.6 288ZM387.8 300.6L396.7 310.3L390.3 321.6L377.3 318.7ZM369.3 330.1L376.5 341.2L368.2 351.2L355.9 346.1ZM346.1 355.9L351.2 368.2L341.2 376.5L330.1 369.3ZM318.7 377.3L321.6 390.3L310.3 396.7L300.6 387.8ZM288 393.6L288.6 406.9L276.4 411.3L268.3 400.8ZM254.9 404.4L253.2 417.6L240.4 419.8L234.3 408ZM220.4 409.2L216.5 421.9L203.5 421.9L199.6 409.2ZM185.7 408L179.6 419.8L166.8 417.6L165.1 404.4ZM151.7 400.8L143.6 411.3L131.4 406.9L132 393.6ZM119.4 387.8L109.7 396.7L98.4 390.3L101.3 377.3ZM89.9 369.3L78.8 376.5L68.8 368.2L73.9 355.9ZM64.1 346.1L51.8 351.2L43.5 341.2L50.7 330.1ZM42.7 318.7L29.7 321.6L23.3 310.3L32.2 300.6ZM26.4 288L13.1 288.6L8.7 276.4L19.2 268.3ZM15.6 254.9L2.4 253.2L0.2 240.4L12 234.3ZM10.8 220.4L-1.9 216.5L-1.9 203.5L10.8 199.6ZM12 185.7L0.2 179.6L2.4 166.8L15.6 165.1ZM19.2 151.7L8.7 143.6L13.1 131.4L26.4 132ZM32.2 119.4L23.3 109.7L29.7 98.4L42.7 101.3ZM50.7 89.9L43.5 78.8L51.8 68.8L64.1 73.9ZM73.9 64.1L68.8 51.8L78.8 43.5L89.9 50.7ZM101.3 42.7L98.4 29.7L109.7 23.3L119.4 32.2ZM132 26.4L131.4 13.1L143.6 8.7L151.7 19.2ZM165.1 15.6L166.8 2.4L179.6 0.2L185.7 12ZM216 177.6L216 33L204 33L204 177.6ZM241.1 199L366.3 126.7L360.3 116.3L235.1 188.6ZM235.1 231.4L360.3 303.7L366.3 293.3L241.1 221ZM204 242.4L204 387L216 387L216 242.4ZM178.9 221L53.7 293.3L59.7 303.7L184.9 231.4ZM184.9 188.6L59.7 116.3L53.7 126.7L178.9 199Z" fill="url(#k90bdaf6c_0)" fill-rule="evenodd"/><path d="M174 210a36 36 0 1 0 72 0a36 36 0 1 0 -72 0Z" fill="url(#k90bdaf6c_1)"/><path d="M174 210a36 36 0 1 0 72 0a36 36 0 1 0 -72 0Z" fill="none" stroke="#8E6428" stroke-width="2.2"/></g><g transform="translate(1330 210) scale(1)"><path d="M8 150a142 142 0 1 0 284 0a142 142 0 1 0 -284 0ZM26 150a124 124 0 1 0 248 0a124 124 0 1 0 -248 0ZM140.5 8.8L144 -1.9L156 -1.9L159.5 8.8ZM172.1 10.2L178 0.6L189.6 3.3L190.7 14.5ZM202.7 18.7L210.5 10.6L221.3 15.7L219.8 26.9ZM230.6 33.7L240 27.5L249.4 35L245.5 45.6ZM254.4 54.5L265 50.6L272.5 60L266.3 69.4ZM273.1 80.2L284.3 78.7L289.4 89.5L281.3 97.3ZM285.5 109.3L296.7 110.4L299.4 122L289.8 127.9ZM291.2 140.5L301.9 144L301.9 156L291.2 159.5ZM289.8 172.1L299.4 178L296.7 189.6L285.5 190.7ZM281.3 202.7L289.4 210.5L284.3 221.3L273.1 219.8ZM266.3 230.6L272.5 240L265 249.4L254.4 245.5ZM245.5 254.4L249.4 265L240 272.5L230.6 266.3ZM219.8 273.1L221.3 284.3L210.5 289.4L202.7 281.3ZM190.7 285.5L189.6 296.7L178 299.4L172.1 289.8ZM159.5 291.2L156 301.9L144 301.9L140.5 291.2ZM127.9 289.8L122 299.4L110.4 296.7L109.3 285.5ZM97.3 281.3L89.5 289.4L78.7 284.3L80.2 273.1ZM69.4 266.3L60 272.5L50.6 265L54.5 254.4ZM45.6 245.5L35 249.4L27.5 240L33.7 230.6ZM26.9 219.8L15.7 221.3L10.6 210.5L18.7 202.7ZM14.5 190.7L3.3 189.6L0.6 178L10.2 172.1ZM8.8 159.5L-1.9 156L-1.9 144L8.8 140.5ZM10.2 127.9L0.6 122L3.3 110.4L14.5 109.3ZM18.7 97.3L10.6 89.5L15.7 78.7L26.9 80.2ZM33.7 69.4L27.5 60L35 50.6L45.6 54.5ZM54.5 45.6L50.6 35L60 27.5L69.4 33.7ZM80.2 26.9L78.7 15.7L89.5 10.6L97.3 18.7ZM109.3 14.5L110.4 3.3L122 0.6L127.9 10.2ZM155 124.8L155 25L145 25L145 124.8ZM175.5 147L270.4 116.1L267.3 106.6L172.4 137.5ZM160.8 173.3L219.4 254.1L227.5 248.2L168.9 167.4ZM131.1 167.4L72.5 248.2L80.6 254.1L139.2 173.3ZM127.6 137.5L32.7 106.6L29.6 116.1L124.5 147Z" fill="#C99A4A" fill-rule="evenodd" fill-opacity="0.7"/><path d="M8 150a142 142 0 1 0 284 0a142 142 0 1 0 -284 0ZM26 150a124 124 0 1 0 248 0a124 124 0 1 0 -248 0ZM140.5 8.8L144 -1.9L156 -1.9L159.5 8.8ZM172.1 10.2L178 0.6L189.6 3.3L190.7 14.5ZM202.7 18.7L210.5 10.6L221.3 15.7L219.8 26.9ZM230.6 33.7L240 27.5L249.4 35L245.5 45.6ZM254.4 54.5L265 50.6L272.5 60L266.3 69.4ZM273.1 80.2L284.3 78.7L289.4 89.5L281.3 97.3ZM285.5 109.3L296.7 110.4L299.4 122L289.8 127.9ZM291.2 140.5L301.9 144L301.9 156L291.2 159.5ZM289.8 172.1L299.4 178L296.7 189.6L285.5 190.7ZM281.3 202.7L289.4 210.5L284.3 221.3L273.1 219.8ZM266.3 230.6L272.5 240L265 249.4L254.4 245.5ZM245.5 254.4L249.4 265L240 272.5L230.6 266.3ZM219.8 273.1L221.3 284.3L210.5 289.4L202.7 281.3ZM190.7 285.5L189.6 296.7L178 299.4L172.1 289.8ZM159.5 291.2L156 301.9L144 301.9L140.5 291.2ZM127.9 289.8L122 299.4L110.4 296.7L109.3 285.5ZM97.3 281.3L89.5 289.4L78.7 284.3L80.2 273.1ZM69.4 266.3L60 272.5L50.6 265L54.5 254.4ZM45.6 245.5L35 249.4L27.5 240L33.7 230.6ZM26.9 219.8L15.7 221.3L10.6 210.5L18.7 202.7ZM14.5 190.7L3.3 189.6L0.6 178L10.2 172.1ZM8.8 159.5L-1.9 156L-1.9 144L8.8 140.5ZM10.2 127.9L0.6 122L3.3 110.4L14.5 109.3ZM18.7 97.3L10.6 89.5L15.7 78.7L26.9 80.2ZM33.7 69.4L27.5 60L35 50.6L45.6 54.5ZM54.5 45.6L50.6 35L60 27.5L69.4 33.7ZM80.2 26.9L78.7 15.7L89.5 10.6L97.3 18.7ZM109.3 14.5L110.4 3.3L122 0.6L127.9 10.2ZM155 124.8L155 25L145 25L145 124.8ZM175.5 147L270.4 116.1L267.3 106.6L172.4 137.5ZM160.8 173.3L219.4 254.1L227.5 248.2L168.9 167.4ZM131.1 167.4L72.5 248.2L80.6 254.1L139.2 173.3ZM127.6 137.5L32.7 106.6L29.6 116.1L124.5 147Z" fill="url(#k90bdaf6c_2)" fill-rule="evenodd"/><path d="M122 150a28 28 0 1 0 56 0a28 28 0 1 0 -56 0Z" fill="url(#k90bdaf6c_3)"/><path d="M122 150a28 28 0 1 0 56 0a28 28 0 1 0 -56 0Z" fill="none" stroke="#8E6428" stroke-width="1.7"/></g><g transform="translate(0 240) scale(1)"><path d="M0 12L170.7 12M0 96L170.7 96M0 96L170.7 12M170.7 12L170.7 96M170.7 12L341.3 12M170.7 96L341.3 96M170.7 12L341.3 96M341.3 12L341.3 96M341.3 12L512 12M341.3 96L512 96M341.3 96L512 12M512 12L512 96M512 12L682.7 12M512 96L682.7 96M512 12L682.7 96M682.7 12L682.7 96M682.7 12L853.3 12M682.7 96L853.3 96M682.7 96L853.3 12M853.3 12L853.3 96M853.3 12L1024 12M853.3 96L1024 96M853.3 12L1024 96M1024 12L1024 96M1024 12L1194.7 12M1024 96L1194.7 96M1024 96L1194.7 12M1194.7 12L1194.7 96M1194.7 12L1365.3 12M1194.7 96L1365.3 96M1194.7 12L1365.3 96M1365.3 12L1365.3 96M1365.3 12L1536 12M1365.3 96L1536 96M1365.3 96L1536 12M1536 12L1536 96M1536 12L1706.7 12M1536 96L1706.7 96M1536 12L1706.7 96M1706.7 12L1706.7 96M1706.7 12L1877.3 12M1706.7 96L1877.3 96M1706.7 96L1877.3 12M1877.3 12L1877.3 96M1877.3 12L2048 12M1877.3 96L2048 96M1877.3 12L2048 96M2048 12L2048 96M12 96L12 360M2036 96L2036 360M12 175.2L134.9 96M2036 175.2L1913.1 96" stroke="#C99A4A" stroke-width="12" stroke-linecap="square" fill="none"/><path d="M-2.4 9L168.3 9M-2.4 93L168.3 93M-2.4 93L168.3 9M168.3 9L168.3 93M168.3 9L338.9 9M168.3 93L338.9 93M168.3 9L338.9 93M338.9 9L338.9 93M338.9 9L509.6 9M338.9 93L509.6 93M338.9 93L509.6 9M509.6 9L509.6 93M509.6 9L680.3 9M509.6 93L680.3 93M509.6 9L680.3 93M680.3 9L680.3 93M680.3 9L850.9 9M680.3 93L850.9 93M680.3 93L850.9 9M850.9 9L850.9 93M850.9 9L1021.6 9M850.9 93L1021.6 93M850.9 9L1021.6 93M1021.6 9L1021.6 93M1021.6 9L1192.3 9M1021.6 93L1192.3 93M1021.6 93L1192.3 9M1192.3 9L1192.3 93M1192.3 9L1362.9 9M1192.3 93L1362.9 93M1192.3 9L1362.9 93M1362.9 9L1362.9 93M1362.9 9L1533.6 9M1362.9 93L1533.6 93M1362.9 93L1533.6 9M1533.6 9L1533.6 93M1533.6 9L1704.3 9M1533.6 93L1704.3 93M1533.6 9L1704.3 93M1704.3 9L1704.3 93M1704.3 9L1874.9 9M1704.3 93L1874.9 93M1704.3 93L1874.9 9M1874.9 9L1874.9 93M1874.9 9L2045.6 9M1874.9 93L2045.6 93M1874.9 9L2045.6 93M2045.6 9L2045.6 93M9.6 93L9.6 357M2033.6 93L2033.6 357M9.6 172.2L132.5 93M2033.6 172.2L1910.7 93" stroke="#8E6428" stroke-width="3" stroke-opacity="0.7" fill="none"/><path d="M-3.6 12a3.6 3.6 0 1 0 7.2 0a3.6 3.6 0 1 0 -7.2 0ZM167.1 12a3.6 3.6 0 1 0 7.2 0a3.6 3.6 0 1 0 -7.2 0ZM-3.6 96a3.6 3.6 0 1 0 7.2 0a3.6 3.6 0 1 0 -7.2 0ZM167.1 96a3.6 3.6 0 1 0 7.2 0a3.6 3.6 0 1 0 -7.2 0ZM337.7 12a3.6 3.6 0 1 0 7.2 0a3.6 3.6 0 1 0 -7.2 0ZM337.7 96a3.6 3.6 0 1 0 7.2 0a3.6 3.6 0 1 0 -7.2 0ZM508.4 12a3.6 3.6 0 1 0 7.2 0a3.6 3.6 0 1 0 -7.2 0ZM508.4 96a3.6 3.6 0 1 0 7.2 0a3.6 3.6 0 1 0 -7.2 0ZM679.1 12a3.6 3.6 0 1 0 7.2 0a3.6 3.6 0 1 0 -7.2 0ZM679.1 96a3.6 3.6 0 1 0 7.2 0a3.6 3.6 0 1 0 -7.2 0ZM849.7 12a3.6 3.6 0 1 0 7.2 0a3.6 3.6 0 1 0 -7.2 0ZM849.7 96a3.6 3.6 0 1 0 7.2 0a3.6 3.6 0 1 0 -7.2 0ZM1020.4 12a3.6 3.6 0 1 0 7.2 0a3.6 3.6 0 1 0 -7.2 0ZM1020.4 96a3.6 3.6 0 1 0 7.2 0a3.6 3.6 0 1 0 -7.2 0ZM1191.1 12a3.6 3.6 0 1 0 7.2 0a3.6 3.6 0 1 0 -7.2 0ZM1191.1 96a3.6 3.6 0 1 0 7.2 0a3.6 3.6 0 1 0 -7.2 0ZM1361.7 12a3.6 3.6 0 1 0 7.2 0a3.6 3.6 0 1 0 -7.2 0ZM1361.7 96a3.6 3.6 0 1 0 7.2 0a3.6 3.6 0 1 0 -7.2 0ZM1532.4 12a3.6 3.6 0 1 0 7.2 0a3.6 3.6 0 1 0 -7.2 0ZM1532.4 96a3.6 3.6 0 1 0 7.2 0a3.6 3.6 0 1 0 -7.2 0ZM1703.1 12a3.6 3.6 0 1 0 7.2 0a3.6 3.6 0 1 0 -7.2 0ZM1703.1 96a3.6 3.6 0 1 0 7.2 0a3.6 3.6 0 1 0 -7.2 0ZM1873.7 12a3.6 3.6 0 1 0 7.2 0a3.6 3.6 0 1 0 -7.2 0ZM1873.7 96a3.6 3.6 0 1 0 7.2 0a3.6 3.6 0 1 0 -7.2 0ZM2044.4 12a3.6 3.6 0 1 0 7.2 0a3.6 3.6 0 1 0 -7.2 0ZM2044.4 96a3.6 3.6 0 1 0 7.2 0a3.6 3.6 0 1 0 -7.2 0ZM8.4 96a3.6 3.6 0 1 0 7.2 0a3.6 3.6 0 1 0 -7.2 0ZM8.4 360a3.6 3.6 0 1 0 7.2 0a3.6 3.6 0 1 0 -7.2 0ZM2032.4 96a3.6 3.6 0 1 0 7.2 0a3.6 3.6 0 1 0 -7.2 0ZM2032.4 360a3.6 3.6 0 1 0 7.2 0a3.6 3.6 0 1 0 -7.2 0ZM8.4 175.2a3.6 3.6 0 1 0 7.2 0a3.6 3.6 0 1 0 -7.2 0ZM131.3 96a3.6 3.6 0 1 0 7.2 0a3.6 3.6 0 1 0 -7.2 0ZM2032.4 175.2a3.6 3.6 0 1 0 7.2 0a3.6 3.6 0 1 0 -7.2 0ZM1909.5 96a3.6 3.6 0 1 0 7.2 0a3.6 3.6 0 1 0 -7.2 0Z" fill="#8E6428"/></g><g transform="translate(0 239) scale(1)"><path d="M2 0h2044a2 2 0 0 1 2 2v22a2 2 0 0 1 -2 2h-2044a2 2 0 0 1 -2 -2v-22a2 2 0 0 1 2 -2Z" fill="url(#k90bdaf6c_4)"/><path d="M3 2h2042a1 1 0 0 1 1 1v20a1 1 0 0 1 -1 1h-2042a1 1 0 0 1 -1 -1v-20a1 1 0 0 1 1 -1Z" fill="#27466A"/><path d="M2 24V2H2046" stroke="#6E7F9A" stroke-opacity="0.4" stroke-width="1.5" fill="none"/><path d="M2 24H2046V2" stroke="#526B88" stroke-opacity="0.8" stroke-width="1.5" fill="none"/><path d="M0 21.3h2048v4.7h-2048Z" fill="#6E7F9A" fill-opacity="0.3"/><path d="M0 26L0 0M0 0L2048 0" fill="none" stroke="#526B88" stroke-width="1.5" stroke-linecap="round" stroke-opacity="0.7"/></g></svg>